<?xml version="1.0" encoding="UTF-8"?>
<svg xmlns="http://www.w3.org/2000/svg" xmlns:xlink="http://www.w3.org/1999/xlink" width="65px" height="65px" viewBox="0 0 65 65" version="1.1">
<g id="surface1">
<path style=" stroke:none;fill-rule:nonzero;fill:rgb(0%,47.843137%,80.000001%);fill-opacity:1;" d="M 48.398438 16.742188 C 50.128906 17.144531 51.699219 18.050781 52.914062 19.34375 C 53.582031 20.046875 54.164062 20.824219 54.644531 21.667969 C 54.667969 21.757812 51.527344 23.867188 49.625 25.042969 C 49.554688 25.089844 49.28125 24.792969 48.972656 24.332031 C 48.265625 23.117188 46.984375 22.351562 45.578125 22.300781 C 43.390625 22.152344 41.980469 23.296875 41.992188 25.210938 C 41.972656 25.683594 42.082031 26.148438 42.304688 26.566406 C 42.785156 27.558594 43.679688 28.15625 46.484375 29.375 C 51.652344 31.597656 53.871094 33.066406 55.238281 35.148438 C 56.804688 37.8125 57.117188 41.035156 56.085938 43.949219 C 54.660156 47.167969 51.601562 49.355469 48.097656 49.667969 C 46.269531 49.878906 44.421875 49.859375 42.597656 49.609375 C 39.804688 49.152344 37.230469 47.8125 35.253906 45.785156 C 34.503906 44.941406 33.871094 44.007812 33.371094 43 C 33.582031 42.84375 33.804688 42.703125 34.035156 42.578125 C 34.355469 42.394531 35.570312 41.695312 36.71875 41.03125 L 38.796875 39.8125 L 39.230469 40.445312 C 39.964844 41.492188 40.894531 42.386719 41.972656 43.070312 C 44.195312 44.289062 46.910156 44.152344 48.996094 42.714844 C 50.085938 41.652344 50.257812 39.964844 49.402344 38.707031 C 48.84375 37.902344 47.699219 37.230469 44.441406 35.816406 C 41.886719 34.957031 39.5625 33.527344 37.640625 31.644531 C 36.722656 30.597656 36.046875 29.367188 35.65625 28.035156 C 35.367188 26.515625 35.324219 24.957031 35.53125 23.425781 C 36.3125 19.8125 39.269531 17.074219 42.933594 16.574219 C 44.753906 16.355469 46.59375 16.414062 48.398438 16.742188 Z M 31.453125 19.757812 L 31.472656 22.710938 L 22.070312 22.710938 L 22.070312 49.417969 L 15.4375 49.417969 L 15.4375 22.714844 L 6.03125 22.714844 L 6.03125 19.816406 C 6.007812 18.820312 6.035156 17.828125 6.113281 16.835938 C 6.148438 16.789062 11.867188 16.769531 18.800781 16.78125 L 31.414062 16.816406 Z M 31.453125 19.757812 "/>
</g>
</svg>
