<svg width="1922.000000" height="1939.000000" viewBox="0 0 1922 1939" fill="none" xmlns="http://www.w3.org/2000/svg" xmlns:xlink="http://www.w3.org/1999/xlink">
	<desc>
			Created with Pixso.
	</desc>
	<defs>
		<clipPath id="clip0_4">
			<rect id="line3" width="1922.000000" height="1939.000000" fill="white" fill-opacity="0"/>
		</clipPath>
	</defs>
	<g clip-path="url(#clip0_4)">
		<path id="line3" d="M2752.84 1020.94C2494.99 1003.53 2309.31 895.56 2201.79 776.23C2058.64 617.35 2054.02 438.3 2202.01 425.88C2305.3 417.21 2294.62 589.14 2201.79 776.23M2201.79 776.23C2102.34 976.66 1908.57 1194.51 1659.57 1226.35C1360.19 1264.65 1367.34 932.17 1454.5 610.67C1496.71 454.99 1521.5 347 1659.57 279.5C1804 208.88 1849.5 506.5 1454.5 610.67" stroke="#7468F6" stroke-opacity="1.000000" stroke-width="38.783234"/>
		<path id="line3" d="M1457.47 606C1226.66 722.28 1097.55 893.92 1044.87 1045.67C974.74 1247.68 1040.07 1414.46 1181.26 1368.38C1279.79 1336.22 1203.13 1181.96 1044.87 1045.67M1044.87 1045.67C875.32 899.65 612.12 774.26 370.32 841.7C79.6 922.79 215.42 1226.34 420.7 1488.68C567.93 1676.84 750.88 1843.79 837.82 1892.29C1010.56 1988.63 987.5 1626.06 420.7 1488.68M420.7 1488.68C304.37 1460.49 165.14 1441.78 0 1438.47" stroke="#7468F6" stroke-opacity="1.000000" stroke-width="38.783234"/>
	</g>
</svg>
